<svg id="svg" version="1.1" xmlns="http://www.w3.org/2000/svg" xmlns:xlink="http://www.w3.org/1999/xlink" width="400" height="266.6666666666667" viewBox="0, 0, 400,266.6666666666667"><g id="svgg"><path id="path0" d="M307.481 54.154 C 306.682 54.438,305.534 54.909,304.930 55.202 C 304.326 55.494,303.704 55.733,303.548 55.733 C 303.393 55.733,303.128 55.898,302.961 56.100 C 302.794 56.302,302.121 56.617,301.467 56.800 C 300.812 56.983,300.140 57.298,299.972 57.500 C 299.805 57.702,299.543 57.867,299.391 57.867 C 299.137 57.867,291.323 61.581,290.400 62.140 C 290.180 62.273,288.920 62.929,287.600 63.596 C 286.280 64.264,285.020 64.922,284.800 65.058 C 284.580 65.194,284.040 65.486,283.600 65.706 C 280.824 67.093,279.974 67.560,279.846 67.767 C 279.767 67.895,279.508 68.000,279.272 68.000 C 279.035 68.000,278.653 68.167,278.421 68.372 C 278.001 68.743,274.831 70.530,273.067 71.390 C 272.553 71.641,271.953 71.991,271.733 72.168 C 271.513 72.345,270.493 72.932,269.467 73.472 C 268.440 74.013,267.420 74.606,267.200 74.790 C 266.980 74.975,265.985 75.592,264.988 76.163 C 263.991 76.733,262.731 77.466,262.188 77.790 C 261.645 78.115,260.780 78.629,260.267 78.932 C 259.753 79.236,258.793 79.840,258.133 80.275 C 257.473 80.709,256.564 81.238,256.112 81.450 C 255.660 81.662,255.136 82.023,254.946 82.251 C 254.757 82.480,254.477 82.667,254.326 82.667 C 254.174 82.667,253.657 82.967,253.176 83.333 C 252.696 83.700,252.242 84.000,252.169 84.000 C 252.096 84.000,250.678 84.902,249.018 86.005 C 247.358 87.108,245.820 88.126,245.600 88.267 C 244.582 88.919,242.889 90.064,240.933 91.421 C 239.760 92.236,238.020 93.437,237.067 94.090 C 236.113 94.744,235.086 95.501,234.783 95.772 C 234.480 96.044,234.156 96.267,234.062 96.267 C 233.918 96.267,232.237 97.470,229.666 99.413 C 229.336 99.662,228.636 100.167,228.111 100.533 C 227.586 100.900,226.476 101.745,225.645 102.411 C 224.813 103.077,223.173 104.333,222.000 105.203 C 220.827 106.073,219.807 106.849,219.733 106.926 C 219.436 107.242,217.647 108.709,216.799 109.333 C 215.834 110.043,211.443 113.647,210.663 114.369 C 210.406 114.606,209.956 114.980,209.662 115.200 C 208.509 116.062,203.409 120.566,198.808 124.785 C 192.756 130.334,184.913 138.234,180.800 142.923 C 179.847 144.010,178.767 145.215,178.400 145.600 C 176.023 148.098,168.791 156.790,167.200 159.061 C 166.562 159.972,165.792 160.953,164.960 161.913 C 164.748 162.159,164.427 162.639,164.248 162.980 C 164.069 163.321,163.484 164.140,162.949 164.800 C 162.414 165.460,161.741 166.348,161.455 166.773 C 160.707 167.882,160.240 168.561,159.333 169.862 C 158.893 170.493,158.406 171.224,158.251 171.486 C 158.096 171.748,157.766 172.241,157.517 172.581 C 157.269 172.922,156.893 173.440,156.682 173.733 C 156.139 174.488,155.540 174.047,154.474 172.106 C 153.036 169.486,152.753 168.996,152.505 168.692 C 152.373 168.531,151.587 167.380,150.758 166.133 C 148.132 162.186,147.003 160.843,142.679 156.528 C 139.030 152.888,135.997 150.289,134.142 149.215 C 133.875 149.060,133.013 148.504,132.228 147.980 C 129.611 146.232,126.315 144.364,124.000 143.315 C 123.487 143.083,122.579 142.662,121.982 142.380 C 121.386 142.098,120.723 141.867,120.508 141.867 C 120.294 141.867,119.843 141.673,119.505 141.437 C 119.168 141.201,118.331 140.848,117.646 140.654 C 116.961 140.460,115.800 140.100,115.067 139.856 C 114.333 139.611,113.193 139.230,112.533 139.010 C 111.873 138.789,110.553 138.457,109.600 138.272 C 108.647 138.087,107.087 137.748,106.133 137.519 C 100.464 136.160,96.782 136.393,96.399 138.136 C 96.300 138.587,96.000 139.162,95.731 139.412 C 95.463 139.662,95.161 140.197,95.059 140.600 L 94.876 141.333 98.038 141.365 C 101.037 141.395,101.315 141.757,98.400 141.836 C 97.185 141.869,96.267 143.038,96.267 144.553 C 96.267 144.780,95.736 145.559,95.088 146.283 C 94.440 147.008,93.845 147.925,93.764 148.322 C 93.675 148.764,93.313 149.201,92.831 149.451 C 91.998 149.882,91.894 150.172,91.591 152.933 C 91.431 154.382,90.605 156.252,89.280 158.164 C 88.934 158.663,88.977 158.774,90.398 161.027 C 90.986 161.958,91.472 162.798,91.479 162.893 C 91.485 162.989,92.065 163.907,92.767 164.933 L 94.043 166.800 95.355 166.793 C 96.076 166.789,98.982 166.622,101.812 166.423 C 108.718 165.935,115.432 166.329,121.867 167.599 C 123.113 167.845,124.493 168.171,124.933 168.324 C 125.373 168.477,126.534 168.819,127.514 169.084 C 128.493 169.349,129.657 169.754,130.100 169.983 C 130.544 170.212,131.098 170.400,131.332 170.400 C 131.566 170.400,132.321 170.700,133.010 171.067 C 133.699 171.433,134.449 171.733,134.678 171.733 C 134.906 171.733,135.207 171.842,135.347 171.974 C 135.486 172.106,136.680 172.783,138.000 173.478 C 139.320 174.173,140.440 174.844,140.489 174.970 C 140.538 175.097,140.718 175.200,140.890 175.200 C 142.471 175.200,151.869 183.608,154.933 187.763 C 155.300 188.260,156.003 189.062,156.497 189.545 L 157.395 190.422 159.031 188.882 C 159.931 188.034,160.727 187.274,160.800 187.191 C 160.873 187.109,161.893 186.213,163.067 185.200 C 164.240 184.188,165.332 183.233,165.494 183.080 C 165.656 182.926,166.482 182.200,167.330 181.467 C 168.178 180.733,169.065 179.940,169.302 179.704 C 169.539 179.468,170.310 178.840,171.015 178.308 C 171.719 177.777,172.450 177.190,172.639 177.004 C 172.828 176.819,173.385 176.367,173.877 176.000 C 174.696 175.389,176.481 173.923,176.800 173.599 C 176.873 173.524,177.508 173.044,178.210 172.532 C 178.913 172.019,180.197 171.060,181.065 170.400 C 181.932 169.740,183.075 168.900,183.604 168.533 C 184.133 168.167,184.740 167.706,184.954 167.509 C 185.474 167.032,187.950 165.333,188.127 165.333 C 188.204 165.333,188.495 165.123,188.773 164.867 C 189.335 164.349,190.394 163.608,192.400 162.329 C 193.133 161.862,193.889 161.330,194.079 161.146 C 194.269 160.963,194.839 160.617,195.346 160.376 C 195.852 160.136,196.267 159.833,196.267 159.703 C 196.267 159.573,196.405 159.467,196.575 159.467 C 196.744 159.467,197.276 159.167,197.757 158.800 C 198.238 158.433,198.703 158.133,198.791 158.133 C 198.932 158.133,200.859 156.928,203.733 155.042 C 204.247 154.705,204.967 154.301,205.333 154.143 C 205.700 153.985,206.540 153.503,207.200 153.071 C 207.860 152.640,208.760 152.104,209.200 151.882 C 209.640 151.659,210.600 151.119,211.333 150.682 C 212.614 149.920,213.270 149.574,214.133 149.207 C 214.353 149.113,215.105 148.713,215.804 148.318 C 216.504 147.923,218.604 146.841,220.471 145.913 C 222.339 144.985,224.047 144.115,224.267 143.979 C 224.487 143.843,224.943 143.613,225.280 143.468 C 225.617 143.322,226.577 142.888,227.413 142.503 C 229.283 141.641,231.477 140.644,233.067 139.933 C 233.727 139.638,234.710 139.172,235.253 138.898 C 235.795 138.624,236.396 138.400,236.588 138.400 C 236.780 138.400,237.501 138.100,238.190 137.733 C 238.879 137.367,239.665 137.067,239.937 137.067 C 240.209 137.067,240.664 136.889,240.949 136.671 C 241.234 136.453,241.947 136.144,242.533 135.982 C 243.120 135.821,244.080 135.474,244.667 135.211 C 246.288 134.483,248.897 133.548,252.667 132.342 C 253.400 132.108,254.480 131.705,255.067 131.447 C 255.653 131.190,256.643 130.898,257.265 130.800 C 257.888 130.701,258.457 130.523,258.531 130.404 C 258.605 130.284,259.295 130.046,260.066 129.873 C 260.836 129.700,262.067 129.336,262.800 129.063 C 263.533 128.790,264.553 128.490,265.067 128.396 C 265.580 128.301,266.635 127.993,267.410 127.712 C 268.186 127.430,269.077 127.200,269.391 127.200 C 269.705 127.200,270.751 126.967,271.714 126.682 C 274.349 125.903,278.069 125.027,279.867 124.763 C 280.747 124.633,282.007 124.357,282.667 124.149 C 283.327 123.941,284.887 123.643,286.133 123.486 C 287.380 123.329,289.180 123.022,290.133 122.804 C 292.858 122.179,299.899 121.354,306.656 120.868 C 309.329 120.675,309.452 120.639,309.629 120.000 C 309.859 119.167,309.928 55.574,309.700 54.433 C 309.508 53.473,309.429 53.463,307.481 54.154 M109.733 142.667 C 109.522 143.008,105.862 143.008,105.333 142.667 C 105.059 142.490,105.714 142.407,107.416 142.404 C 109.004 142.401,109.839 142.496,109.733 142.667 M114.777 143.628 C 115.516 143.912,114.940 144.267,113.739 144.267 C 112.397 144.267,111.672 144.048,111.884 143.705 C 112.050 143.436,114.132 143.381,114.777 143.628 M118.933 145.051 C 118.933 145.518,118.367 145.656,117.181 145.478 C 115.526 145.230,115.707 144.800,117.467 144.800 C 118.273 144.800,118.933 144.913,118.933 145.051 M122.114 146.243 C 122.568 146.790,122.039 147.025,120.851 146.802 C 119.662 146.579,119.411 146.440,119.611 146.115 C 119.852 145.726,121.766 145.824,122.114 146.243 M124.989 147.733 C 125.094 148.134,125.353 148.267,126.031 148.267 C 126.562 148.267,127.142 148.475,127.440 148.773 C 127.718 149.051,128.319 149.361,128.775 149.461 C 129.231 149.561,129.722 149.864,129.867 150.133 C 130.011 150.403,130.498 150.704,130.949 150.803 C 131.400 150.903,131.830 151.141,131.904 151.334 C 131.978 151.527,132.394 151.832,132.829 152.012 C 133.264 152.192,133.740 152.563,133.886 152.837 C 134.032 153.110,134.441 153.333,134.794 153.333 C 135.465 153.333,135.866 153.703,135.622 154.098 C 135.376 154.496,134.070 154.082,133.934 153.562 C 133.863 153.290,133.588 153.067,133.324 153.067 C 132.566 153.067,132.000 152.775,132.000 152.384 C 132.000 152.183,131.583 151.946,131.059 151.848 C 130.542 151.751,129.998 151.445,129.850 151.169 C 129.702 150.893,129.411 150.667,129.203 150.667 C 128.543 150.667,127.467 150.061,127.467 149.691 C 127.467 149.471,127.157 149.333,126.667 149.333 C 126.227 149.333,125.648 149.115,125.381 148.848 C 125.115 148.581,124.335 148.206,123.648 148.013 C 122.059 147.569,122.048 147.200,123.625 147.200 C 124.626 147.200,124.875 147.298,124.989 147.733 M136.798 154.660 C 137.107 154.855,137.124 154.982,136.876 155.231 C 136.627 155.480,136.465 155.475,136.148 155.212 C 135.457 154.639,136.015 154.165,136.798 154.660 M138.333 156.200 C 138.399 156.396,138.215 156.533,137.889 156.533 C 137.561 156.533,137.333 156.361,137.333 156.114 C 137.333 155.624,138.165 155.695,138.333 156.200 M121.931 156.919 C 123.752 157.111,124.369 157.456,123.701 157.908 C 123.348 158.147,120.077 157.982,119.306 157.686 C 119.101 157.607,118.933 157.259,118.933 156.911 C 118.933 156.368,119.017 156.311,119.533 156.505 C 119.863 156.628,120.942 156.815,121.931 156.919 M126.987 158.429 C 127.429 158.666,127.466 158.770,127.169 158.958 C 126.447 159.415,124.331 158.944,124.666 158.400 C 124.887 158.043,126.299 158.060,126.987 158.429 M118.417 160.005 C 119.326 160.296,120.444 160.536,120.901 160.539 C 121.359 160.542,122.227 160.769,122.829 161.043 C 123.432 161.317,124.419 161.624,125.022 161.726 C 125.624 161.828,126.391 162.124,126.725 162.383 C 127.060 162.643,127.771 162.937,128.307 163.035 C 128.842 163.134,129.426 163.390,129.604 163.605 C 129.783 163.820,130.401 164.123,130.978 164.279 C 131.555 164.434,132.094 164.734,132.174 164.944 C 132.255 165.155,132.789 165.453,133.361 165.607 C 134.701 165.968,134.857 166.804,133.533 166.530 C 133.057 166.431,132.541 166.191,132.387 165.997 C 132.233 165.803,131.633 165.559,131.053 165.455 C 130.474 165.351,129.808 165.099,129.574 164.895 C 129.340 164.691,128.560 164.357,127.841 164.153 C 126.612 163.805,125.831 163.553,122.733 162.505 C 122.037 162.269,120.490 161.918,119.296 161.725 C 118.102 161.532,116.662 161.246,116.096 161.089 C 115.530 160.932,113.516 160.802,111.621 160.801 C 107.673 160.800,106.162 160.267,108.047 159.541 C 109.412 159.016,116.283 159.324,118.417 160.005 M129.942 159.733 C 130.160 159.733,130.160 159.814,129.940 160.034 C 129.761 160.212,129.339 160.259,128.900 160.149 C 128.322 160.004,128.245 159.910,128.547 159.718 C 128.760 159.583,129.093 159.531,129.288 159.603 C 129.484 159.675,129.778 159.733,129.942 159.733 M136.259 167.190 C 136.597 167.404,136.590 167.462,136.208 167.608 C 135.602 167.841,134.868 167.671,134.733 167.267 C 134.602 166.873,135.673 166.819,136.259 167.190 M138.107 168.369 C 138.342 168.651,138.328 168.771,138.049 168.878 C 137.556 169.067,136.954 168.664,137.182 168.296 C 137.427 167.899,137.737 167.923,138.107 168.369 M90.410 195.322 C 89.621 196.272,88.987 196.267,200.000 196.267 C 311.013 196.267,310.379 196.272,309.590 195.322 C 309.102 194.733,90.898 194.733,90.410 195.322 M251.741 201.192 C 251.163 201.807,251.134 201.990,251.307 203.925 C 251.409 205.066,251.595 207.380,251.722 209.067 C 251.997 212.744,252.071 212.961,253.117 213.170 C 255.634 213.673,285.646 213.335,286.332 212.796 C 286.985 212.283,287.046 212.279,287.708 212.717 C 288.716 213.384,293.075 213.566,293.576 212.963 C 294.012 212.436,294.487 212.429,295.867 212.926 C 296.930 213.309,300.424 213.463,301.501 213.174 C 302.408 212.930,302.667 211.921,302.667 208.630 C 302.667 205.955,302.737 205.462,303.200 204.873 C 304.243 203.547,303.840 202.918,300.869 201.227 C 299.979 200.720,299.611 202.782,300.238 204.768 C 301.850 209.875,301.376 211.208,298.100 210.785 C 296.750 210.611,296.267 210.018,296.267 208.537 C 296.267 207.059,295.145 207.276,294.837 208.813 C 294.262 211.688,288.211 211.633,288.706 208.756 C 288.990 207.102,288.021 207.182,287.165 208.885 C 286.038 211.128,287.528 210.933,271.463 210.933 C 252.341 210.933,253.927 211.424,253.347 205.333 C 252.845 200.071,252.830 200.032,251.741 201.192 M227.572 201.286 C 226.580 201.965,226.179 203.065,226.693 203.700 C 226.972 204.044,227.200 204.605,227.200 204.946 C 227.200 205.288,227.388 206.376,227.617 207.365 C 228.128 209.570,227.986 210.231,226.902 210.680 C 225.343 211.325,223.976 210.586,223.542 208.862 C 222.523 204.815,219.675 205.261,218.505 209.652 C 217.939 211.777,218.066 212.142,219.594 212.798 C 221.720 213.709,220.129 215.942,217.294 216.027 C 214.640 216.105,214.564 216.735,217.115 217.524 C 218.758 218.032,219.191 218.077,219.852 217.810 C 220.760 217.443,222.400 216.070,222.400 215.677 C 222.400 214.446,224.063 213.333,225.902 213.333 C 229.326 213.333,229.600 212.976,229.600 208.518 C 229.600 205.818,229.679 205.216,230.132 204.473 C 230.821 203.343,230.805 202.973,230.052 202.686 C 229.713 202.558,229.076 202.149,228.636 201.779 C 228.196 201.408,227.717 201.187,227.572 201.286 M202.217 201.543 C 201.599 201.936,201.343 203.095,201.747 203.671 C 202.347 204.528,202.833 209.190,202.406 209.989 C 201.394 211.880,196.304 211.004,196.271 208.933 C 196.253 207.758,195.887 207.274,195.354 207.716 C 195.122 207.908,194.933 208.243,194.933 208.461 C 194.933 208.679,194.563 209.324,194.111 209.895 L 193.289 210.933 181.427 210.933 C 168.915 210.933,168.716 210.952,168.248 212.182 C 167.901 213.096,168.270 213.494,169.636 213.678 C 171.187 213.886,171.399 214.222,170.419 214.920 C 168.486 216.296,165.126 215.711,163.620 213.736 C 162.462 212.217,161.867 212.569,161.867 214.772 C 161.867 216.381,163.112 217.445,165.600 217.962 C 168.029 218.466,172.481 216.509,172.924 214.743 C 173.257 213.417,173.911 213.333,183.899 213.333 C 192.135 213.333,193.212 213.285,193.645 212.893 C 194.098 212.483,194.228 212.483,195.497 212.893 C 196.618 213.255,198.061 213.333,203.597 213.333 C 211.816 213.333,211.664 213.359,212.747 211.772 C 215.360 207.943,210.618 204.916,206.940 208.066 C 206.176 208.720,204.474 209.133,204.216 208.727 C 203.761 208.011,203.976 205.437,204.533 204.933 C 205.072 204.445,205.304 202.667,204.828 202.667 C 204.697 202.667,204.307 202.369,203.961 202.005 C 203.320 201.328,202.779 201.185,202.217 201.543 M146.960 202.420 C 146.348 203.249,146.480 204.596,147.492 207.840 C 148.306 210.449,145.291 212.084,144.000 209.733 C 143.682 209.153,143.274 208.870,142.514 208.703 C 141.938 208.576,140.792 208.186,139.967 207.836 C 139.142 207.486,138.302 207.196,138.100 207.192 C 137.898 207.187,137.500 207.007,137.216 206.792 C 136.381 206.160,134.827 206.300,133.887 207.090 C 132.547 208.218,132.743 208.541,135.000 208.922 C 135.701 209.040,135.999 209.227,135.996 209.545 C 135.984 210.847,136.680 210.795,118.210 210.877 L 100.933 210.955 99.400 210.124 C 98.557 209.667,97.867 209.187,97.867 209.056 C 97.867 208.476,96.771 208.224,96.115 208.654 C 95.357 209.151,95.293 209.767,95.908 210.645 C 97.157 212.427,94.809 215.516,91.733 216.139 C 89.619 216.567,89.801 216.946,92.440 217.609 C 94.611 218.154,95.940 217.276,97.650 214.166 L 98.100 213.347 116.584 213.274 L 135.067 213.200 136.632 212.347 C 139.013 211.051,141.410 210.874,141.795 211.967 C 142.210 213.145,142.668 213.333,145.121 213.333 C 149.106 213.333,149.384 213.025,149.303 208.677 C 149.256 206.128,149.309 205.764,149.837 205.049 C 150.525 204.119,150.519 204.106,148.842 202.701 L 147.551 201.621 146.960 202.420 M235.024 201.905 C 234.303 202.810,234.108 204.199,234.388 206.433 C 234.541 207.654,234.667 209.263,234.667 210.009 C 234.667 212.684,235.497 212.680,236.304 210.000 C 236.851 208.183,235.720 201.031,235.024 201.905 M154.398 202.939 C 154.132 203.579,154.130 204.514,154.384 207.499 C 154.783 212.180,154.776 212.160,155.753 211.137 C 156.675 210.173,156.755 208.997,156.149 205.333 C 155.582 201.904,155.100 201.244,154.398 202.939 M291.234 202.632 L 290.601 203.118 291.218 203.692 C 291.929 204.356,292.090 204.382,292.784 203.948 C 293.143 203.724,293.477 203.709,293.914 203.897 C 294.856 204.304,296.117 203.974,296.214 203.296 C 296.324 202.530,295.007 202.042,293.886 202.433 C 293.344 202.622,292.940 202.618,292.570 202.419 C 291.906 202.064,291.989 202.051,291.234 202.632 M193.133 202.577 C 192.677 202.761,192.712 204.129,193.184 204.520 C 193.886 205.102,195.008 204.754,195.240 203.883 C 195.565 202.655,194.530 202.013,193.133 202.577 M307.737 202.796 C 307.014 203.667,307.664 210.280,308.552 211.083 C 309.615 212.045,309.949 210.432,309.594 206.056 C 309.315 202.632,308.728 201.601,307.737 202.796 M246.841 207.421 C 246.213 208.115,246.295 208.986,247.060 209.751 C 247.836 210.527,248.267 211.271,248.267 211.836 C 248.267 212.329,245.712 214.933,245.229 214.933 C 245.038 214.933,244.665 215.173,244.400 215.467 C 244.135 215.760,243.711 216.000,243.458 216.000 C 242.659 216.000,242.277 216.716,242.899 217.048 C 246.019 218.718,249.316 215.740,249.375 211.199 C 249.411 208.390,247.944 206.202,246.841 207.421 M221.333 209.310 C 221.333 209.842,220.544 210.208,220.133 209.867 C 219.647 209.463,219.613 208.888,220.067 208.725 C 220.460 208.584,221.333 208.987,221.333 209.310 M210.133 209.333 C 211.175 210.375,210.854 210.667,208.667 210.667 C 206.589 210.667,206.445 210.609,207.000 209.990 C 207.183 209.786,207.488 209.434,207.677 209.209 C 208.161 208.633,209.501 208.701,210.133 209.333 M284.165 216.036 C 283.801 216.556,283.837 217.314,284.229 217.348 C 286.979 217.584,288.268 217.507,288.652 217.083 C 289.449 216.203,287.920 215.412,286.293 215.863 C 285.811 215.997,285.338 215.965,285.038 215.777 C 284.646 215.533,284.484 215.581,284.165 216.036 M164.530 219.739 C 164.063 220.612,164.444 220.800,166.682 220.800 C 169.007 220.800,169.403 220.471,168.044 219.668 C 167.358 219.263,167.233 219.260,166.699 219.634 C 166.167 220.007,166.048 220.006,165.465 219.623 C 164.860 219.227,164.800 219.234,164.530 219.739 " stroke="none" fill="#fcf9f6" fill-rule="evenodd"></path><path id="path1" d="M0.000 133.333 L 0.000 266.667 200.000 266.667 L 400.000 266.667 400.000 133.333 L 400.000 0.000 200.000 0.000 L 0.000 0.000 0.000 133.333 M309.700 54.433 C 309.928 55.574,309.859 119.167,309.629 120.000 C 309.452 120.639,309.329 120.675,306.656 120.868 C 299.899 121.354,292.858 122.179,290.133 122.804 C 289.180 123.022,287.380 123.329,286.133 123.486 C 284.887 123.643,283.327 123.941,282.667 124.149 C 282.007 124.357,280.747 124.633,279.867 124.763 C 278.069 125.027,274.349 125.903,271.714 126.682 C 270.751 126.967,269.705 127.200,269.391 127.200 C 269.077 127.200,268.186 127.430,267.410 127.712 C 266.635 127.993,265.580 128.301,265.067 128.396 C 264.553 128.490,263.533 128.790,262.800 129.063 C 262.067 129.336,260.836 129.700,260.066 129.873 C 259.295 130.046,258.605 130.284,258.531 130.404 C 258.457 130.523,257.888 130.701,257.265 130.800 C 256.643 130.898,255.653 131.190,255.067 131.447 C 254.480 131.705,253.400 132.108,252.667 132.342 C 248.897 133.548,246.288 134.483,244.667 135.211 C 244.080 135.474,243.120 135.821,242.533 135.982 C 241.947 136.144,241.234 136.453,240.949 136.671 C 240.664 136.889,240.209 137.067,239.937 137.067 C 239.665 137.067,238.879 137.367,238.190 137.733 C 237.501 138.100,236.780 138.400,236.588 138.400 C 236.396 138.400,235.795 138.624,235.253 138.898 C 234.710 139.172,233.727 139.638,233.067 139.933 C 231.477 140.644,229.283 141.641,227.413 142.503 C 226.577 142.888,225.617 143.322,225.280 143.468 C 224.943 143.613,224.487 143.843,224.267 143.979 C 224.047 144.115,222.339 144.985,220.471 145.913 C 218.604 146.841,216.504 147.923,215.804 148.318 C 215.105 148.713,214.353 149.113,214.133 149.207 C 213.270 149.574,212.614 149.920,211.333 150.682 C 210.600 151.119,209.640 151.659,209.200 151.882 C 208.760 152.104,207.860 152.640,207.200 153.071 C 206.540 153.503,205.700 153.985,205.333 154.143 C 204.967 154.301,204.247 154.705,203.733 155.042 C 200.859 156.928,198.932 158.133,198.791 158.133 C 198.703 158.133,198.238 158.433,197.757 158.800 C 197.276 159.167,196.744 159.467,196.575 159.467 C 196.405 159.467,196.267 159.573,196.267 159.703 C 196.267 159.833,195.852 160.136,195.346 160.376 C 194.839 160.617,194.269 160.963,194.079 161.146 C 193.889 161.330,193.133 161.862,192.400 162.329 C 190.394 163.608,189.335 164.349,188.773 164.867 C 188.495 165.123,188.204 165.333,188.127 165.333 C 187.950 165.333,185.474 167.032,184.954 167.509 C 184.740 167.706,184.133 168.167,183.604 168.533 C 183.075 168.900,181.932 169.740,181.065 170.400 C 180.197 171.060,178.913 172.019,178.210 172.532 C 177.508 173.044,176.873 173.524,176.800 173.599 C 176.481 173.923,174.696 175.389,173.877 176.000 C 173.385 176.367,172.828 176.819,172.639 177.004 C 172.450 177.190,171.719 177.777,171.015 178.308 C 170.310 178.840,169.539 179.468,169.302 179.704 C 169.065 179.940,168.178 180.733,167.330 181.467 C 166.482 182.200,165.656 182.926,165.494 183.080 C 165.332 183.233,164.240 184.188,163.067 185.200 C 161.893 186.213,160.873 187.109,160.800 187.191 C 160.727 187.274,159.931 188.034,159.031 188.882 L 157.395 190.422 156.497 189.545 C 156.003 189.062,155.300 188.260,154.933 187.763 C 151.869 183.608,142.471 175.200,140.890 175.200 C 140.718 175.200,140.538 175.097,140.489 174.970 C 140.440 174.844,139.320 174.173,138.000 173.478 C 136.680 172.783,135.486 172.106,135.347 171.974 C 135.207 171.842,134.906 171.733,134.678 171.733 C 134.449 171.733,133.699 171.433,133.010 171.067 C 132.321 170.700,131.566 170.400,131.332 170.400 C 131.098 170.400,130.544 170.212,130.100 169.983 C 129.657 169.754,128.493 169.349,127.514 169.084 C 126.534 168.819,125.373 168.477,124.933 168.324 C 124.493 168.171,123.113 167.845,121.867 167.599 C 115.432 166.329,108.718 165.935,101.812 166.423 C 98.982 166.622,96.076 166.789,95.355 166.793 L 94.043 166.800 92.767 164.933 C 92.065 163.907,91.485 162.989,91.479 162.893 C 91.472 162.798,90.986 161.958,90.398 161.027 C 88.977 158.774,88.934 158.663,89.280 158.164 C 90.605 156.252,91.431 154.382,91.591 152.933 C 91.894 150.172,91.998 149.882,92.831 149.451 C 93.313 149.201,93.675 148.764,93.764 148.322 C 93.845 147.925,94.440 147.008,95.088 146.283 C 95.736 145.559,96.267 144.780,96.267 144.553 C 96.267 143.038,97.185 141.869,98.400 141.836 C 101.315 141.757,101.037 141.395,98.038 141.365 L 94.876 141.333 95.059 140.600 C 95.161 140.197,95.463 139.662,95.731 139.412 C 96.000 139.162,96.300 138.587,96.399 138.136 C 96.782 136.393,100.464 136.160,106.133 137.519 C 107.087 137.748,108.647 138.087,109.600 138.272 C 110.553 138.457,111.873 138.789,112.533 139.010 C 113.193 139.230,114.333 139.611,115.067 139.856 C 115.800 140.100,116.961 140.460,117.646 140.654 C 118.331 140.848,119.168 141.201,119.505 141.437 C 119.843 141.673,120.294 141.867,120.508 141.867 C 120.723 141.867,121.386 142.098,121.982 142.380 C 122.579 142.662,123.487 143.083,124.000 143.315 C 126.315 144.364,129.611 146.232,132.228 147.980 C 133.013 148.504,133.875 149.060,134.142 149.215 C 138.534 151.759,146.782 160.156,150.758 166.133 C 151.587 167.380,152.373 168.531,152.505 168.692 C 152.753 168.996,153.036 169.486,154.474 172.106 C 155.540 174.047,156.139 174.488,156.682 173.733 C 156.893 173.440,157.269 172.922,157.517 172.581 C 157.766 172.241,158.096 171.748,158.251 171.486 C 158.406 171.224,158.893 170.493,159.333 169.862 C 160.240 168.561,160.707 167.882,161.455 166.773 C 161.741 166.348,162.414 165.460,162.949 164.800 C 163.484 164.140,164.069 163.321,164.248 162.980 C 164.427 162.639,164.748 162.159,164.960 161.913 C 165.792 160.953,166.562 159.972,167.200 159.061 C 168.791 156.790,176.023 148.098,178.400 145.600 C 178.767 145.215,179.847 144.010,180.800 142.923 C 184.913 138.234,192.756 130.334,198.808 124.785 C 203.409 120.566,208.509 116.062,209.662 115.200 C 209.956 114.980,210.406 114.606,210.663 114.369 C 211.443 113.647,215.834 110.043,216.799 109.333 C 217.647 108.709,219.436 107.242,219.733 106.926 C 219.807 106.849,220.827 106.073,222.000 105.203 C 223.173 104.333,224.813 103.077,225.645 102.411 C 226.476 101.745,227.586 100.900,228.111 100.533 C 228.636 100.167,229.336 99.662,229.666 99.413 C 232.237 97.470,233.918 96.267,234.062 96.267 C 234.156 96.267,234.480 96.044,234.783 95.772 C 235.086 95.501,236.113 94.744,237.067 94.090 C 238.020 93.437,239.760 92.236,240.933 91.421 C 242.889 90.064,244.582 88.919,245.600 88.267 C 245.820 88.126,247.358 87.108,249.018 86.005 C 250.678 84.902,252.096 84.000,252.169 84.000 C 252.242 84.000,252.696 83.700,253.176 83.333 C 253.657 82.967,254.174 82.667,254.326 82.667 C 254.477 82.667,254.757 82.480,254.946 82.251 C 255.136 82.023,255.660 81.662,256.112 81.450 C 256.564 81.238,257.473 80.709,258.133 80.275 C 258.793 79.840,259.753 79.236,260.267 78.932 C 260.780 78.629,261.645 78.115,262.188 77.790 C 262.731 77.466,263.991 76.733,264.988 76.163 C 265.985 75.592,266.980 74.975,267.200 74.790 C 267.420 74.606,268.440 74.013,269.467 73.472 C 270.493 72.932,271.513 72.345,271.733 72.168 C 271.953 71.991,272.553 71.641,273.067 71.390 C 274.831 70.530,278.001 68.743,278.421 68.372 C 278.653 68.167,279.035 68.000,279.272 68.000 C 279.508 68.000,279.767 67.895,279.846 67.767 C 279.974 67.560,280.824 67.093,283.600 65.706 C 284.040 65.486,284.580 65.194,284.800 65.058 C 285.020 64.922,286.280 64.264,287.600 63.596 C 288.920 62.929,290.180 62.273,290.400 62.140 C 291.323 61.581,299.137 57.867,299.391 57.867 C 299.543 57.867,299.805 57.702,299.972 57.500 C 300.140 57.298,300.812 56.983,301.467 56.800 C 302.121 56.617,302.794 56.302,302.961 56.100 C 303.128 55.898,303.393 55.733,303.548 55.733 C 303.704 55.733,304.326 55.494,304.930 55.202 C 306.147 54.613,308.765 53.650,309.233 53.619 C 309.398 53.609,309.608 53.975,309.700 54.433 M105.333 142.667 C 105.862 143.008,109.522 143.008,109.733 142.667 C 109.839 142.496,109.004 142.401,107.416 142.404 C 105.714 142.407,105.059 142.490,105.333 142.667 M111.884 143.705 C 111.672 144.048,112.397 144.267,113.739 144.267 C 114.940 144.267,115.516 143.912,114.777 143.628 C 114.132 143.381,112.050 143.436,111.884 143.705 M116.000 145.050 C 116.000 145.358,118.253 145.722,118.648 145.478 C 119.309 145.070,118.839 144.800,117.467 144.800 C 116.660 144.800,116.000 144.913,116.000 145.050 M119.611 146.115 C 119.411 146.440,119.662 146.579,120.851 146.802 C 122.039 147.025,122.568 146.790,122.114 146.243 C 121.766 145.824,119.852 145.726,119.611 146.115 M122.400 147.432 C 122.400 147.560,122.962 147.821,123.648 148.013 C 124.335 148.206,125.115 148.581,125.381 148.848 C 125.648 149.115,126.227 149.333,126.667 149.333 C 127.157 149.333,127.467 149.471,127.467 149.691 C 127.467 150.061,128.543 150.667,129.203 150.667 C 129.411 150.667,129.702 150.893,129.850 151.169 C 129.998 151.445,130.542 151.751,131.059 151.848 C 131.583 151.946,132.000 152.183,132.000 152.384 C 132.000 152.775,132.566 153.067,133.324 153.067 C 133.588 153.067,133.863 153.290,133.934 153.562 C 134.070 154.082,135.376 154.496,135.622 154.098 C 135.866 153.703,135.465 153.333,134.794 153.333 C 134.441 153.333,134.032 153.110,133.886 152.837 C 133.740 152.563,133.264 152.192,132.829 152.012 C 132.394 151.832,131.978 151.527,131.904 151.334 C 131.830 151.141,131.400 150.903,130.949 150.803 C 130.498 150.704,130.011 150.403,129.867 150.133 C 129.722 149.864,129.231 149.561,128.775 149.461 C 128.319 149.361,127.718 149.051,127.440 148.773 C 127.142 148.475,126.562 148.267,126.031 148.267 C 125.353 148.267,125.094 148.134,124.989 147.733 C 124.845 147.181,122.400 146.896,122.400 147.432 M135.885 154.636 C 135.622 155.063,136.511 155.596,136.876 155.231 C 137.124 154.982,137.107 154.855,136.798 154.660 C 136.297 154.343,136.070 154.337,135.885 154.636 M137.333 156.114 C 137.333 156.361,137.561 156.533,137.889 156.533 C 138.539 156.533,138.447 155.910,137.778 155.780 C 137.515 155.729,137.333 155.865,137.333 156.114 M118.933 156.911 C 118.933 157.259,119.101 157.607,119.306 157.686 C 120.077 157.982,123.348 158.147,123.701 157.908 C 124.369 157.456,123.752 157.111,121.931 156.919 C 120.942 156.815,119.863 156.628,119.533 156.505 C 119.017 156.311,118.933 156.368,118.933 156.911 M124.666 158.400 C 124.331 158.944,126.447 159.415,127.169 158.958 C 127.466 158.770,127.429 158.666,126.987 158.429 C 126.299 158.060,124.887 158.043,124.666 158.400 M108.047 159.541 C 106.162 160.267,107.673 160.800,111.621 160.801 C 113.516 160.802,115.530 160.932,116.096 161.089 C 116.662 161.246,118.102 161.532,119.296 161.725 C 120.490 161.918,122.037 162.269,122.733 162.505 C 125.831 163.553,126.612 163.805,127.841 164.153 C 128.560 164.357,129.340 164.691,129.574 164.895 C 129.808 165.099,130.474 165.351,131.053 165.455 C 131.633 165.559,132.233 165.803,132.387 165.997 C 132.541 166.191,133.057 166.431,133.533 166.530 C 134.857 166.804,134.701 165.968,133.361 165.607 C 132.789 165.453,132.255 165.155,132.174 164.944 C 132.094 164.734,131.555 164.434,130.978 164.279 C 130.401 164.123,129.783 163.820,129.604 163.605 C 129.426 163.390,128.842 163.134,128.307 163.035 C 127.771 162.937,127.060 162.643,126.725 162.383 C 126.391 162.124,125.624 161.828,125.022 161.726 C 124.419 161.624,123.432 161.317,122.829 161.043 C 122.227 160.769,121.359 160.542,120.901 160.539 C 120.444 160.536,119.326 160.296,118.417 160.005 C 116.283 159.324,109.412 159.016,108.047 159.541 M128.547 159.718 C 128.245 159.910,128.322 160.004,128.900 160.149 C 129.339 160.259,129.761 160.212,129.940 160.034 C 130.160 159.814,130.160 159.733,129.942 159.733 C 129.778 159.733,129.484 159.675,129.288 159.603 C 129.093 159.531,128.760 159.583,128.547 159.718 M134.733 167.267 C 134.868 167.671,135.602 167.841,136.208 167.608 C 136.590 167.462,136.597 167.404,136.259 167.190 C 135.673 166.819,134.602 166.873,134.733 167.267 M137.182 168.296 C 136.954 168.664,137.556 169.067,138.049 168.878 C 138.328 168.771,138.342 168.651,138.107 168.369 C 137.737 167.923,137.427 167.899,137.182 168.296 M309.590 195.322 C 310.379 196.272,311.013 196.267,200.000 196.267 C 88.987 196.267,89.621 196.272,90.410 195.322 C 90.898 194.733,309.102 194.733,309.590 195.322 M252.915 201.400 C 252.992 201.877,253.186 203.647,253.347 205.333 C 253.927 211.424,252.341 210.933,271.463 210.933 C 287.528 210.933,286.038 211.128,287.165 208.885 C 288.021 207.182,288.990 207.102,288.706 208.756 C 288.211 211.633,294.262 211.688,294.837 208.813 C 295.145 207.276,296.267 207.059,296.267 208.537 C 296.267 210.018,296.750 210.611,298.100 210.785 C 301.376 211.208,301.850 209.875,300.238 204.768 C 299.611 202.782,299.979 200.720,300.869 201.227 C 303.840 202.918,304.243 203.547,303.200 204.873 C 302.737 205.462,302.667 205.955,302.667 208.630 C 302.667 211.921,302.408 212.930,301.501 213.174 C 300.424 213.463,296.930 213.309,295.867 212.926 C 294.487 212.429,294.012 212.436,293.576 212.963 C 293.075 213.566,288.716 213.384,287.708 212.717 C 287.046 212.279,286.985 212.283,286.332 212.796 C 285.646 213.335,255.634 213.673,253.117 213.170 C 252.071 212.961,251.997 212.744,251.722 209.067 C 251.595 207.380,251.409 205.066,251.307 203.925 C 251.073 201.304,252.531 199.014,252.915 201.400 M230.052 202.686 C 230.805 202.973,230.821 203.343,230.132 204.473 C 229.679 205.216,229.600 205.818,229.600 208.518 C 229.600 212.976,229.326 213.333,225.902 213.333 C 224.063 213.333,222.400 214.446,222.400 215.677 C 222.400 216.070,220.760 217.443,219.852 217.810 C 219.191 218.077,218.758 218.032,217.115 217.524 C 214.564 216.735,214.640 216.105,217.294 216.027 C 220.129 215.942,221.720 213.709,219.594 212.798 C 218.066 212.142,217.939 211.777,218.505 209.652 C 219.675 205.261,222.523 204.815,223.542 208.862 C 223.976 210.586,225.343 211.325,226.902 210.680 C 227.986 210.231,228.128 209.570,227.617 207.365 C 227.388 206.376,227.200 205.288,227.200 204.946 C 227.200 204.605,226.972 204.044,226.693 203.700 C 226.194 203.083,226.195 203.063,226.747 202.270 C 227.573 201.086,227.756 201.039,228.636 201.779 C 229.076 202.149,229.713 202.558,230.052 202.686 M203.961 202.005 C 204.307 202.369,204.697 202.667,204.828 202.667 C 205.304 202.667,205.072 204.445,204.533 204.933 C 203.976 205.437,203.761 208.011,204.216 208.727 C 204.474 209.133,206.176 208.720,206.940 208.066 C 210.618 204.916,215.360 207.943,212.747 211.772 C 211.664 213.359,211.816 213.333,203.597 213.333 C 198.061 213.333,196.618 213.255,195.497 212.893 C 194.228 212.483,194.098 212.483,193.645 212.893 C 193.212 213.285,192.135 213.333,183.899 213.333 C 173.911 213.333,173.257 213.417,172.924 214.743 C 172.481 216.509,168.029 218.466,165.600 217.962 C 163.112 217.445,161.867 216.381,161.867 214.772 C 161.867 212.569,162.462 212.217,163.620 213.736 C 165.126 215.711,168.486 216.296,170.419 214.920 C 171.399 214.222,171.187 213.886,169.636 213.678 C 168.270 213.494,167.901 213.096,168.248 212.182 C 168.716 210.952,168.915 210.933,181.427 210.933 L 193.289 210.933 194.111 209.895 C 194.563 209.324,194.933 208.679,194.933 208.461 C 194.933 208.243,195.122 207.908,195.354 207.716 C 195.887 207.274,196.253 207.758,196.271 208.933 C 196.304 211.004,201.394 211.880,202.406 209.989 C 202.833 209.190,202.347 204.528,201.747 203.671 C 200.683 202.153,202.678 200.651,203.961 202.005 M150.278 204.018 C 150.359 204.149,150.160 204.613,149.837 205.049 C 149.309 205.764,149.256 206.128,149.303 208.677 C 149.384 213.025,149.106 213.333,145.121 213.333 C 142.668 213.333,142.210 213.145,141.795 211.967 C 141.410 210.874,139.013 211.051,136.632 212.347 L 135.067 213.200 116.584 213.274 L 98.100 213.347 97.650 214.166 C 95.940 217.276,94.611 218.154,92.440 217.609 C 89.801 216.946,89.619 216.567,91.733 216.139 C 94.809 215.516,97.157 212.427,95.908 210.645 C 95.293 209.767,95.357 209.151,96.115 208.654 C 96.771 208.224,97.867 208.476,97.867 209.056 C 97.867 209.187,98.557 209.667,99.400 210.124 L 100.933 210.955 118.210 210.877 C 136.680 210.795,135.984 210.847,135.996 209.545 C 135.999 209.227,135.701 209.040,135.000 208.922 C 132.743 208.541,132.547 208.218,133.887 207.090 C 134.827 206.300,136.381 206.160,137.216 206.792 C 137.500 207.007,137.898 207.187,138.100 207.192 C 138.302 207.196,139.142 207.486,139.967 207.836 C 140.792 208.186,141.938 208.576,142.514 208.703 C 143.274 208.870,143.682 209.153,144.000 209.733 C 145.291 212.084,148.306 210.449,147.492 207.840 C 146.480 204.596,146.348 203.249,146.960 202.420 L 147.551 201.621 148.842 202.701 C 149.551 203.296,150.198 203.888,150.278 204.018 M236.247 206.133 C 236.543 209.184,236.470 209.925,235.712 211.556 C 235.210 212.635,234.667 211.830,234.667 210.009 C 234.667 209.263,234.541 207.654,234.388 206.433 C 234.108 204.199,234.303 202.810,235.024 201.905 C 235.502 201.305,235.919 202.745,236.247 206.133 M155.592 202.600 C 155.916 203.427,156.524 207.559,156.529 208.960 C 156.534 210.375,155.179 212.493,154.838 211.604 C 154.428 210.535,154.081 203.704,154.398 202.939 C 154.769 202.042,155.314 201.888,155.592 202.600 M292.570 202.419 C 292.940 202.618,293.344 202.622,293.886 202.433 C 295.007 202.042,296.324 202.530,296.214 203.296 C 296.117 203.974,294.856 204.304,293.914 203.897 C 293.477 203.709,293.143 203.724,292.784 203.948 C 292.090 204.382,291.929 204.356,291.218 203.692 L 290.601 203.118 291.234 202.632 C 291.989 202.051,291.906 202.064,292.570 202.419 M195.158 202.749 C 196.047 203.820,194.266 205.418,193.184 204.520 C 192.712 204.129,192.677 202.761,193.133 202.577 C 193.787 202.313,194.873 202.406,195.158 202.749 M309.046 202.775 C 309.739 203.611,309.940 210.958,309.281 211.366 C 308.365 211.932,307.484 208.895,307.432 204.996 C 307.402 202.716,308.146 201.691,309.046 202.775 M248.523 208.027 C 251.672 211.946,247.092 219.292,242.899 217.048 C 242.277 216.716,242.659 216.000,243.458 216.000 C 243.711 216.000,244.135 215.760,244.400 215.467 C 244.665 215.173,245.038 214.933,245.229 214.933 C 245.712 214.933,248.267 212.329,248.267 211.836 C 248.267 211.271,247.836 210.527,247.060 209.751 C 246.295 208.986,246.213 208.115,246.841 207.421 C 247.445 206.754,247.522 206.781,248.523 208.027 M220.067 208.725 C 219.613 208.888,219.647 209.463,220.133 209.867 C 220.544 210.208,221.333 209.842,221.333 209.310 C 221.333 208.987,220.460 208.584,220.067 208.725 M207.677 209.209 C 207.488 209.434,207.183 209.786,207.000 209.990 C 206.445 210.609,206.589 210.667,208.667 210.667 C 210.267 210.667,210.667 210.587,210.667 210.267 C 210.667 209.101,208.432 208.311,207.677 209.209 M286.293 215.863 C 287.920 215.412,289.449 216.203,288.652 217.083 C 288.268 217.507,286.979 217.584,284.229 217.348 C 283.837 217.314,283.801 216.556,284.165 216.036 C 284.484 215.581,284.646 215.533,285.038 215.777 C 285.338 215.965,285.811 215.997,286.293 215.863 M166.699 219.634 C 167.355 219.174,168.800 219.741,168.800 220.457 C 168.800 220.874,164.658 220.951,164.403 220.539 C 163.989 219.868,164.787 219.179,165.465 219.623 C 166.048 220.006,166.167 220.007,166.699 219.634 " stroke="none" fill="#fc9434" fill-rule="evenodd"></path></g></svg>